Coordinates
version=1
nRows=13
nColumns=36
inDegrees=yes

Units are S.I. units (second, meters, Newtons, ...)
If the header above contains a line with 'inDegrees', this indicates whether rotational values are in degrees (yes) or radians (no).

endheader
time	pelvis_tilt	pelvis_list	pelvis_rotation	pelvis_tx	pelvis_ty	pelvis_tz	hip_flexion_r	hip_adduction_r	hip_rotation_r	knee_angle_r	knee_angle_r_beta	ankle_angle_r	subtalar_angle_r	mtp_angle_r	hip_flexion_l	hip_adduction_l	hip_rotation_l	knee_angle_l	knee_angle_l_beta	ankle_angle_l	subtalar_angle_l	mtp_angle_l	lumbar_extension	lumbar_bending	lumbar_rotation	arm_flex_r	arm_add_r	arm_rot_r	elbow_flex_r	pro_sup_r	arm_flex_l	arm_add_l	arm_rot_l	elbow_flex_l	pro_sup_l
      5.20000000	     -3.17061713	      6.11985287	     19.47521513	      0.30976001	      1.04230253	      0.17112119	     12.10429669	     -2.91946867	     -7.65529394	     10.95199073	      0.19114830	     -0.37743119	    -20.38255562	     -7.49999987	     11.06321478	      1.94653516	    -15.02102425	     34.50578906	      0.60223963	     -2.40081534	    -27.70066392	     -7.49999987	    -11.13294193	     -4.33842733	      9.09423757	     11.03748751	    -15.27311658	     -2.53682081	     64.01298678	     90.03416106	     -6.71885055	     -9.97439019	     -1.00382501	     85.70398770	     92.85986532
      5.21666670	     -2.43838662	      5.99599453	     19.84928887	      0.31311414	      1.03597851	      0.16560484	     11.64524311	     -2.31281765	     -7.99855300	     11.16136369	      0.19480255	     -1.03281723	    -21.62560186	     -7.49999987	      8.95472743	      2.42135153	    -15.97933259	     36.99155502	      0.64562443	     -2.84937377	    -28.63494829	     -7.49999987	    -10.82541249	     -3.82770100	      9.47104175	     10.83340279	    -15.38006595	     -3.47276728	     63.74887935	     88.97560143	     -6.90068757	     -9.75481757	     -0.28993061	     83.69390134	     91.60243010
      5.23333330	     -2.01227762	      5.43425370	     20.86372128	      0.29990890	      1.03941689	      0.17942927	     11.86053266	     -1.22422208	     -8.37841482	     11.13501622	      0.19434270	     -1.69533963	    -23.17538916	     -7.49999987	      8.00134052	      2.33551624	    -16.52935434	     39.50309277	      0.68945903	     -2.93074243	    -28.72049436	     -7.49999987	    -10.87316023	     -3.10862773	      9.39820541	     10.98663588	    -14.98217133	     -4.30934662	     63.97020911	     88.76712156	     -7.00042534	     -9.89427096	      0.36487657	     81.81461686	     91.45739760
      5.25000000	     -1.84438676	      4.79954677	     21.50719690	      0.29083543	      1.02974778	      0.17995406	     12.85191099	     -0.35527457	     -8.27305361	     11.67642121	      0.20379199	     -2.99758282	    -25.79817958	     -7.49999987	      7.65686289	      2.41153146	    -16.85384983	     40.86676032	      0.71325952	     -2.33027784	    -28.93364058	     -7.49999987	    -10.78014547	     -2.32311671	     10.32955739	     10.60408025	    -14.96567111	     -5.74555280	     64.65614934	     87.60510641	     -5.90389751	    -10.09962897	      1.80094555	     78.38556645	     90.27526879
      5.26666670	     -1.82846746	      4.19217052	     22.50086294	      0.28575849	      1.03053705	      0.18352565	     13.79834011	      0.24112167	     -8.91066288	     11.99306596	      0.20931849	     -3.70171990	    -26.90253281	     -7.49999987	      7.83603708	      2.48287310	    -17.28712765	     42.26189239	      0.73760917	      0.01731462	    -27.17390755	     -7.49999987	    -10.90105843	     -1.60028373	     10.95549062	      9.73963025	    -14.53975468	     -7.46487307	     65.70726016	     87.39199202	     -4.20040471	    -10.05773332	      3.69749710	     73.96387822	     90.01093493
      5.28333330	     -1.82911009	      3.53636061	     23.39052571	      0.28105095	      1.02728944	      0.18750033	     14.72396543	      0.93460515	     -9.48899688	     12.29437813	      0.21457738	     -4.77637199	    -28.24641775	     -7.49999987	      8.15552738	      2.37982324	    -18.23435061	     42.84545819	      0.74779431	      2.39065668	    -25.07447971	     -7.49999987	    -10.87901641	     -0.83907109	     11.23052606	      9.21289744	    -14.36499561	     -8.32133318	     66.10267984	     87.04755821	     -2.64663971	     -9.96802722	      5.07869865	     70.13021917	     89.86998826
      5.30000000	     -1.83823426	      2.98346682	     24.79152135	      0.27184553	      1.02972395	      0.19564350	     15.58146003	      1.41728770	    -10.44090757	     12.53879135	      0.21884319	     -5.72482123	    -29.31115391	     -7.49999987	      8.31405383	      2.10798710	    -19.13411260	     43.26194849	      0.75506344	      5.18096923	    -22.36271336	     -7.49999987	    -10.63832998	     -0.27695640	     10.73163927	      9.05269058	    -14.11718802	     -8.01468301	     65.56096142	     85.62356230	     -1.02348423	    -10.06764071	      6.20231126	     66.84224816	     88.47235214
      5.31666670	     -1.73485528	      2.87178019	     26.58309863	      0.26204499	      1.03015203	      0.20420286	     15.97891911	      1.55665625	    -11.41479094	     12.46940152	      0.21763211	     -6.78575558	    -30.57088929	     -7.49999987	      7.13219759	      2.11111296	    -20.62756676	     42.40999253	      0.74019401	      5.80243401	    -20.84016375	     -7.49999987	    -10.69808862	     -0.53857543	     10.65835948	      8.03474392	    -13.42260671	     -9.61806953	     65.49865770	     85.81370693	      1.62182664	    -10.45423814	      8.21694275	     63.76204322	     89.06562732
      5.33333330	     -2.02327247	      2.71085599	     28.39833946	      0.25275377	      1.03054165	      0.21191069	     16.72260179	      1.51154605	    -12.82738032	     12.03097086	      0.20998005	     -8.20587653	    -31.05104618	     -7.49999987	      5.36944683	      2.60088441	    -21.52917324	     39.57234150	      0.69066765	      4.83092876	    -19.89069587	     -7.49999987	    -10.29189466	     -1.21413836	      9.66736966	      7.72197963	    -12.45530037	    -10.01748803	     63.61028013	     85.43340721	      3.47084309	    -10.82795025	      8.94430175	     61.66042297	     88.67297801
      5.35000000	     -1.67023520	      2.49398778	     30.33588636	      0.25081713	      1.03403516	      0.20935707	     16.60801057	      1.65465697	    -14.32356731	     11.65675758	      0.20344880	     -9.81534548	    -31.63802805	     -7.49999987	      2.93903594	      2.58429442	    -23.03434298	     36.96910443	      0.64523259	      3.72171357	    -19.07658592	     -7.49999987	    -10.49028009	     -1.50275017	      8.73492199	      6.87135056	    -10.81793690	    -10.36049702	     62.28866054	     85.56334443	      4.56583697	    -11.07502687	      9.32449007	     60.73401807	     88.77551076
      5.36666670	     -1.52940753	      2.18343431	     32.01032111	      0.24034179	      1.03059368	      0.20799552	     16.91639807	      1.54726522	    -15.95433112	     11.46753715	      0.20014628	    -11.42703975	    -32.20593930	     -7.49999987	      0.50852319	      3.02508314	    -24.37447998	     33.11931196	      0.57804104	      2.25748360	    -18.73552140	     -7.49999987	    -10.09870320	     -1.68159135	      8.25117878	      6.11132616	     -9.56263203	    -10.89085909	     60.32677793	     85.49446888	      5.49166124	    -11.15365689	     10.24382102	     59.91313391	     88.41749374
      5.38333330	     -1.68749302	      1.72726493	     34.03373037	      0.22209316	      1.02475504	      0.22711462	     18.16175679	      1.43913064	    -17.33575862	     11.46888132	      0.20016974	    -12.60844390	    -32.77084965	     -7.49999987	     -0.44531553	      3.06697627	    -25.03699639	     29.84006726	      0.52080742	      1.25378992	    -18.61216137	     -7.49999987	    -10.24960986	     -1.97117368	      7.50750190	      5.90165566	     -8.36516981	    -11.09723189	     59.37848715	     85.02329661	      6.76868127	    -11.38486288	     10.71793436	     60.25225683	     87.81120795
      5.40000000	     -2.45364603	      1.36663009	     36.09147877	      0.20406848	      1.02308390	      0.23557896	     20.49049820	      0.65837309	    -18.32728053	     12.16150195	      0.21225825	    -13.16478472	    -33.29269173	     -7.49999987	      0.24538486	      3.58757493	    -24.21741519	     27.62049787	      0.48206863	      1.28047488	    -18.36942762	     -7.49999987	    -10.17092187	     -2.54693333	      6.61031522	      5.78208840	     -7.01930169	    -11.30079315	     57.92211732	     85.55034615	      7.85431790	    -11.81643196	     11.74079701	     60.68226627	     88.10143399
